<svg width="14" height="15" viewBox="0 0 14 15" fill="none" xmlns="http://www.w3.org/2000/svg">
<path d="M3.15674 5.91731L3.15673 5.91731L3.15607 5.91917C2.99084 6.38481 2.90798 6.86268 2.90798 7.35176C2.90798 7.85659 2.9985 8.35641 3.17805 8.85019L3.17843 8.8512C3.35823 9.33818 3.6133 9.78087 3.94322 10.1783L3.94319 10.1783L3.94611 10.1817C4.28518 10.5735 4.68504 10.8904 5.14455 11.1314L5.14454 11.1314L5.14706 11.1327C5.61508 11.3706 6.12746 11.4883 6.68047 11.4883C7.09168 11.4883 7.50768 11.4159 7.92759 11.2735C8.35837 11.1298 8.7488 10.9177 9.09754 10.6372C9.45348 10.3509 9.71885 10.0003 9.89029 9.58728L9.96719 9.40204L9.78904 9.30989L9.1681 8.98872L8.9682 8.88532L8.87109 9.08836C8.72732 9.38898 8.53712 9.62918 8.30167 9.81373L8.30166 9.81371L8.29939 9.81554C8.06178 10.0069 7.80623 10.1475 7.5322 10.2388C7.25232 10.3321 6.98298 10.3775 6.72329 10.3775C6.34915 10.3775 6.00468 10.2992 5.68684 10.144C5.36976 9.97847 5.09244 9.76055 4.85395 9.48917C4.61489 9.21002 4.4282 8.89039 4.29421 8.52859C4.16066 8.16803 4.09367 7.79047 4.09367 7.39459C4.09367 7.0325 4.15059 6.67709 4.26487 6.32755L4.26524 6.32639C4.37897 5.97183 4.54543 5.65615 4.7642 5.37767C4.98728 5.09563 5.25881 4.87317 5.58055 4.70901L5.58056 4.70904L5.58366 4.7074C5.89736 4.54094 6.26453 4.45449 6.69118 4.45449C6.9468 4.45449 7.20355 4.49376 7.46208 4.57332L7.46355 4.57376C7.72036 4.6508 7.96332 4.77972 8.19291 4.9634L8.19289 4.96342L8.19594 4.96578C8.41477 5.13459 8.60206 5.37032 8.75418 5.68118L8.86002 5.89745L9.06482 5.77084L9.65364 5.40684L9.81919 5.30451L9.73632 5.12841C9.48924 4.60337 9.10356 4.17689 8.58651 3.84957C8.06691 3.50883 7.44585 3.34374 6.734 3.34374C6.13482 3.34374 5.59124 3.4599 5.10802 3.69742C4.63155 3.92452 4.22824 4.23608 3.90079 4.63183C3.57766 5.01527 3.32949 5.44412 3.15674 5.91731ZM4.23501 4.91226L4.23501 4.91226L4.23634 4.91066C4.52229 4.56486 4.87489 4.29164 5.29684 4.09071L5.29685 4.09073L5.29937 4.08949C5.71512 3.88491 6.19174 3.78002 6.734 3.78002C7.3775 3.78002 7.91214 3.92864 8.34861 4.21528L8.34859 4.2153L8.35177 4.21731C8.74479 4.46584 9.04341 4.77393 9.25238 5.14199L9.0322 5.2781C8.87574 5.01412 8.68694 4.7939 8.46398 4.62155C8.19458 4.40631 7.90298 4.25021 7.58965 4.15611C7.29172 4.06451 6.99202 4.01822 6.69118 4.01822C6.20492 4.01822 5.76611 4.11706 5.38073 4.32119C5.00382 4.51376 4.68356 4.77625 4.42171 5.10741L4.4213 5.10794C4.1692 5.42878 3.97891 5.79089 3.85 6.19256C3.72174 6.58511 3.65739 6.98605 3.65739 7.39459C3.65739 7.8409 3.73314 8.26985 3.88509 8.68011C4.03642 9.08872 4.24914 9.45393 4.52355 9.77408L4.52354 9.77409L4.52526 9.77605C4.79986 10.0888 5.12098 10.3412 5.48771 10.5322L5.48768 10.5322L5.49252 10.5346C5.87346 10.7212 6.28474 10.8138 6.72329 10.8138C7.03459 10.8138 7.35051 10.7593 7.67016 10.6527C7.9952 10.5444 8.29597 10.3783 8.57192 10.1562C8.80775 9.97114 9.00342 9.7434 9.15954 9.47547L9.40248 9.60113C9.26266 9.86734 9.07048 10.099 8.8241 10.2972C8.51636 10.5447 8.17181 10.7322 7.78914 10.8598L7.78803 10.8601C7.40878 10.9888 7.03989 11.052 6.68047 11.052C6.19195 11.052 5.74835 10.9486 5.34596 10.7444C4.93591 10.5291 4.58013 10.2472 4.27748 9.89789C3.98013 9.53934 3.7504 9.14058 3.58789 8.70063C3.42498 8.25246 3.34425 7.80317 3.34425 7.35176C3.34425 6.91333 3.4183 6.48509 3.56689 6.06601C3.72232 5.6406 3.94487 5.25637 4.23501 4.91226ZM13.7819 7.5C13.7819 11.2455 10.7455 14.2819 7 14.2819C3.25448 14.2819 0.218137 11.2455 0.218137 7.5C0.218137 3.75448 3.25448 0.718137 7 0.718137C10.7455 0.718137 13.7819 3.75448 13.7819 7.5Z" stroke="#08083D" stroke-width="0.436275"/>
</svg>
