<svg width="36" height="36" viewBox="0 0 36 36" fill="none" xmlns="http://www.w3.org/2000/svg">
<path d="M29.5609 35.3837C21.8614 36.2054 14.1386 36.2054 6.43909 35.3837C3.36896 35.056 0.944 32.631 0.616333 29.5606C-0.205444 21.8611 -0.205444 14.1386 0.616333 6.43909C0.944 3.36896 3.36896 0.944 6.43909 0.616333C14.1386 -0.205444 21.8611 -0.205444 29.5606 0.616333C32.631 0.944 35.056 3.36896 35.3837 6.43909C36.2054 14.1386 36.2054 21.8611 35.3837 29.5606C35.056 32.631 32.6313 35.056 29.5609 35.3837Z" fill="url(#paint0_linear_40_2539)"/>
<path d="M33.4261 7.74254C33.1355 5.0182 30.9838 2.86626 28.2592 2.57539C21.4268 1.84645 14.5741 1.84645 7.74169 2.57539C5.01735 2.86626 2.8654 5.0182 2.57454 7.74254C1.8456 14.5749 1.8456 21.4277 2.57454 28.2598C2.8654 30.9844 5.01735 33.1363 7.74169 33.4269C14.5741 34.1561 21.4268 34.1561 28.2589 33.4269C30.9835 33.1363 33.1355 30.9844 33.4261 28.2598C34.1553 21.4277 34.1553 14.5749 33.4261 7.74254Z" fill="url(#paint1_linear_40_2539)"/>
<path d="M0.539062 28.8125C0.563782 29.0613 0.589325 29.3102 0.615967 29.559C0.943634 32.6291 3.36859 35.0541 6.439 35.3818C14.1385 36.2036 21.8611 36.2036 29.5606 35.3818C32.631 35.0541 35.0556 32.6291 35.3833 29.559C35.41 29.3102 35.4355 29.0613 35.4605 28.8125H0.539062Z" fill="url(#paint2_linear_40_2539)"/>
<path d="M24.2028 5.99377C21.0662 5.99377 18.5237 8.53656 18.5237 11.6732V15.9153H15.4673V21.1675L18.5237 23.9051V35.9966C22.2047 35.9788 25.8853 35.7741 29.5611 35.3819C32.6315 35.0543 35.0562 32.6293 35.3839 29.5589C35.9952 23.8301 36.1515 18.0886 35.853 12.3532L29.4935 5.99377H24.2028Z" fill="url(#paint3_linear_40_2539)"/>
<path d="M18.5237 35.9966C20.6212 35.9865 22.7185 35.9153 24.815 35.7835V21.1675H28.9893L29.4935 15.9153H24.815V12.5801C24.815 11.8434 25.4121 11.2463 26.1487 11.2463H29.4935V5.99377H24.2028C21.0662 5.99377 18.5237 8.53656 18.5237 11.6732V15.9153H15.4673V21.1675H18.5237V35.9966Z" fill="white"/>
<defs>
<linearGradient id="paint0_linear_40_2539" x1="11.9527" y1="5.06153" x2="21.0581" y2="24.5429" gradientUnits="userSpaceOnUse">
<stop stop-color="#3457A0"/>
<stop offset="1" stop-color="#3B5998"/>
</linearGradient>
<linearGradient id="paint1_linear_40_2539" x1="24.8294" y1="22.6935" x2="-6.64043" y2="1.07062" gradientUnits="userSpaceOnUse">
<stop stop-color="#3457A0" stop-opacity="0"/>
<stop offset="1" stop-color="#1F3F77"/>
</linearGradient>
<linearGradient id="paint2_linear_40_2539" x1="17.9997" y1="30.0829" x2="17.9997" y2="34.9544" gradientUnits="userSpaceOnUse">
<stop stop-color="#3457A0" stop-opacity="0"/>
<stop offset="1" stop-color="#1F3F77"/>
</linearGradient>
<linearGradient id="paint3_linear_40_2539" x1="41.3283" y1="29.7285" x2="16.3413" y2="17.1291" gradientUnits="userSpaceOnUse">
<stop stop-color="#3457A0" stop-opacity="0"/>
<stop offset="0.3251" stop-color="#2A4C8D" stop-opacity="0.32549"/>
<stop offset="0.7045" stop-color="#22427D" stop-opacity="0.705882"/>
<stop offset="1" stop-color="#1F3F77"/>
</linearGradient>
</defs>
</svg>
