<svg width="159" height="32" viewBox="0 0 159 32" fill="none" xmlns="http://www.w3.org/2000/svg">
<path d="M149.622 32H1.65043C0.747852 32 0 31.2486 0 30.3417V1.6583C0 0.751417 0.747852 0 1.65043 0H149.622C150.189 0 150.731 0.28502 151.014 0.777328L158.751 13.2405C159.06 13.7587 159.086 14.4065 158.802 14.9247C158.519 15.4429 157.951 15.7798 157.358 15.7798H151.272V30.3417C151.272 31.2745 150.524 32 149.622 32ZM3.30086 28.6834H147.946V14.1215C147.946 13.2146 148.694 12.4632 149.596 12.4632H154.341L148.668 3.3166H3.27507V28.6834H3.30086Z" fill="white"/>
<path d="M9.72221 20.2888C9.748 20.6256 9.748 20.9366 9.82536 21.2216C9.98009 21.8953 10.5474 22.3357 11.3211 22.4135C12.4815 22.543 13.5388 22.258 14.5188 21.688C14.9572 21.4289 14.983 21.4548 15.2924 21.8434C15.6277 22.2839 15.9629 22.7503 16.2981 23.1908C16.556 23.5276 16.5302 23.6831 16.195 23.9422C14.6219 25.0823 12.8426 25.5228 10.9085 25.3414C9.79957 25.2377 8.76805 24.9268 7.89126 24.2531C6.85974 23.4499 6.29241 22.3876 6.24083 21.092C6.18925 19.7706 6.18925 18.4491 6.24083 17.1277C6.29241 15.2621 7.50444 13.7074 9.28381 13.1374C10.7022 12.671 12.1463 12.6451 13.5646 13.0855C15.344 13.6297 16.5302 15.1325 16.6334 16.9981C16.685 17.9568 16.6592 18.8896 16.685 19.8483C16.685 20.1851 16.556 20.2888 16.1434 20.2888C14.132 20.2888 12.0947 20.2888 10.0832 20.2888H9.72221ZM13.281 17.9827C13.281 17.2054 13.3325 16.4281 12.5589 15.9617C11.8368 15.5471 11.089 15.5471 10.3669 15.9876C9.64485 16.454 9.72221 17.2313 9.72221 17.9568H13.281V17.9827Z" fill="white"/>
<path d="M23.0287 21.947H23.3382C24.7307 21.947 26.1233 21.947 27.5158 21.947C28.0058 21.947 28.1089 22.0506 28.1089 22.5429C28.1089 23.2166 28.1089 23.8903 28.1089 24.564C28.1089 24.9786 28.0058 25.0822 27.5932 25.0822C24.6018 25.0822 21.6362 25.0822 18.6448 25.0822C18.2579 25.0822 18.1548 24.9786 18.1548 24.5899C18.1548 24.1753 18.1548 23.7867 18.1548 23.3721C18.1548 23.0612 18.2321 22.802 18.4127 22.5688C19.9342 20.5219 21.4556 18.5008 22.9771 16.4538C23.0287 16.3761 23.0803 16.2984 23.1577 16.1947H22.8482C21.5588 16.1947 20.2694 16.1947 18.98 16.1947C18.5674 16.1947 18.4642 16.0911 18.4642 15.6765C18.4642 14.9769 18.4642 14.2514 18.4642 13.5518C18.4642 13.215 18.5674 13.1113 18.8768 13.1113C21.7393 13.1113 24.6018 13.1113 27.4642 13.1113C27.7995 13.1113 27.9026 13.215 27.9026 13.5518C27.9026 13.9405 27.9026 14.3291 27.9026 14.7178C27.9026 15.0287 27.8253 15.2878 27.6448 15.521C26.1491 17.568 24.6534 19.615 23.1577 21.6619C23.1834 21.7397 23.1319 21.8174 23.0287 21.947Z" fill="white"/>
<path d="M95.0037 13.4223C95.8289 13.1114 96.6541 13.0337 97.4793 13.0596C98.8203 13.1114 100.032 13.526 100.909 14.5883C101.605 15.4434 101.966 16.4539 102.018 17.5422C102.07 18.6045 102.07 19.6928 102.07 20.7551C102.07 22.1025 102.07 23.4758 102.07 24.8231C102.07 25.2377 101.966 25.3413 101.554 25.3413C100.729 25.3413 99.9292 25.3413 99.1039 25.3413C98.6398 25.3413 98.5366 25.2636 98.5366 24.7713C98.5366 22.6984 98.5366 20.6256 98.5366 18.5268C98.5366 18.2159 98.5108 17.9049 98.485 17.594C98.3303 16.6612 97.8146 16.1948 96.8604 16.143C96.3189 16.1171 95.7773 16.1948 95.2358 16.3503C95.0552 16.4021 95.0037 16.4798 95.0037 16.6871C95.0037 19.356 95.0037 21.9989 95.0037 24.6677C95.0037 25.3154 94.9521 25.3673 94.3074 25.3673C93.5337 25.3673 92.7343 25.3673 91.9607 25.3673C91.5996 25.3673 91.4707 25.2377 91.4707 24.9009C91.4707 19.7187 91.4707 14.5624 91.4707 9.38025C91.4707 9.01749 91.5739 8.88794 91.9607 8.88794C92.8117 8.88794 93.6627 8.88794 94.5137 8.88794C94.8747 8.88794 94.9779 8.99158 94.9779 9.35434C94.9779 10.5981 94.9779 11.8418 94.9779 13.1114L95.0037 13.4223Z" fill="white"/>
<path d="M61.4794 17.9301C61.5051 17.4378 61.4536 17.0232 61.273 16.6087C61.0667 16.1423 60.6799 15.935 60.19 15.8832C58.9779 15.7277 57.8432 15.9349 56.7344 16.4273C56.3475 16.6086 56.2444 16.5827 56.0381 16.22C55.7544 15.7018 55.4965 15.1576 55.2129 14.6394C55.0066 14.2249 55.0066 14.1212 55.4192 13.9139C56.5281 13.292 57.7143 12.9293 58.9779 12.8257C59.8547 12.7479 60.7057 12.7479 61.5567 12.9552C63.4908 13.4216 64.6513 14.6912 64.8834 16.6864C64.9349 17.1787 64.9865 17.671 64.9865 18.1374C64.9865 20.1325 64.9865 22.1018 64.9865 24.0969C64.9865 24.5633 64.9349 24.641 64.4965 24.7706C62.4851 25.3147 60.4736 25.5479 58.3848 25.2888C57.7917 25.2111 57.1728 25.0297 56.6054 24.7965C55.2129 24.2264 54.5424 23.1123 54.4908 21.6094C54.4392 19.7957 55.3676 18.5779 57.2759 18.0856C58.4622 17.7747 59.6742 17.7747 60.8862 17.9042C61.0925 17.9042 61.273 17.9301 61.4794 17.9301ZM61.4794 22.3349V20.3139C61.0925 20.1843 59.9836 20.1066 59.4679 20.1843C59.21 20.2103 58.9521 20.2621 58.6942 20.3657C58.3848 20.4694 58.2043 20.7026 58.1011 21.0135C57.9464 21.6613 58.2559 22.1795 58.9521 22.3868C59.8031 22.62 60.6283 22.4904 61.4794 22.3349Z" fill="white"/>
<path d="M125.201 20.2883C125.201 20.5215 125.175 20.7287 125.201 20.936C125.304 21.7911 125.872 22.3093 126.748 22.413C127.909 22.5425 128.966 22.2575 129.946 21.6874C130.384 21.4283 130.41 21.4543 130.72 21.8688C131.055 22.3093 131.39 22.7757 131.725 23.2162C131.983 23.553 131.957 23.7085 131.622 23.9676C130.049 25.1077 128.27 25.5482 126.336 25.3668C125.227 25.2632 124.195 24.9522 123.319 24.2785C122.287 23.4753 121.72 22.413 121.668 21.1174C121.617 19.796 121.617 18.4745 121.668 17.153C121.72 15.2874 122.932 13.7328 124.711 13.1628C126.129 12.6964 127.574 12.6705 128.992 13.1109C130.745 13.6292 131.906 15.1061 132.035 16.9458C132.112 17.9304 132.086 18.915 132.086 19.8996C132.086 20.2105 131.957 20.3142 131.622 20.3142C130.9 20.3142 130.178 20.3142 129.43 20.3142C128.115 20.3142 126.774 20.3142 125.459 20.3142L125.201 20.2883ZM128.734 17.9822C128.734 17.2049 128.786 16.4534 128.038 15.987C127.316 15.5465 126.568 15.5465 125.846 15.987C125.098 16.4534 125.175 17.2308 125.175 17.9822C125.201 17.9822 128.734 17.9822 128.734 17.9822Z" fill="white"/>
<path d="M67.4087 19.7184C67.4087 18.0083 67.4087 16.2982 67.4087 14.614C67.4087 14.1994 67.4861 14.0957 67.8729 13.9403C69.678 13.2666 71.509 12.9298 73.4431 13.1111C74.8614 13.2407 76.0992 13.733 77.0018 14.899C77.5949 15.6763 77.9044 16.5832 77.956 17.5419C78.0076 18.4747 78.0076 19.4334 78.0076 20.3662C78.0076 21.869 78.0076 23.3459 78.0076 24.8488C78.0076 25.3152 77.9044 25.3929 77.466 25.3929C76.6408 25.3929 75.8414 25.3929 75.0161 25.3929C74.5778 25.3929 74.4746 25.3152 74.4746 24.8488C74.4746 22.75 74.4746 20.6771 74.4746 18.5783C74.4746 18.2415 74.4488 17.8787 74.3972 17.5419C74.2683 16.7905 73.7783 16.3241 73.0305 16.2204C72.3858 16.1427 71.7669 16.1945 71.1479 16.3241C70.9674 16.35 70.9416 16.4796 70.9416 16.635C70.9416 19.3298 70.9416 22.0504 70.9416 24.7451C70.9416 24.8228 70.9416 24.9265 70.9416 25.0301C70.9159 25.2374 70.8127 25.367 70.6064 25.367C69.678 25.367 68.7497 25.367 67.7955 25.367C67.5376 25.367 67.4345 25.2374 67.4345 24.9265C67.4345 24.1233 67.4345 23.32 67.4345 22.5168V19.7184H67.4087Z" fill="white"/>
<path d="M115.118 12.7224C116.639 12.7224 118.057 13.0852 119.373 13.7848C119.682 13.9402 119.708 14.0957 119.527 14.3807C119.192 14.9508 118.857 15.5208 118.522 16.0908C118.341 16.4018 118.186 16.4536 117.877 16.2722C116.949 15.8058 115.994 15.5985 114.963 15.6503C114.731 15.6763 114.499 15.7281 114.292 15.8058C113.957 15.9354 113.802 16.1686 113.802 16.5054C113.802 16.8422 113.983 17.1014 114.292 17.1791C114.86 17.3346 115.427 17.4641 115.994 17.5937C116.845 17.775 117.671 17.9823 118.419 18.4228C119.424 19.0188 120.043 19.8738 120.095 21.0657C120.172 22.9054 119.476 24.2528 117.671 24.9265C117.439 25.0042 117.206 25.082 116.974 25.1338C114.576 25.6261 112.307 25.2892 110.244 23.9419C109.883 23.7087 109.857 23.5791 110.063 23.1905C110.398 22.6463 110.708 22.0763 111.043 21.5321C111.249 21.1953 111.378 21.1694 111.714 21.3767C112.771 22.0763 113.931 22.4131 115.195 22.3354C115.504 22.3095 115.788 22.2317 116.072 22.1281C116.381 21.9985 116.536 21.7394 116.536 21.4026C116.51 21.0657 116.33 20.8584 116.02 20.7807C115.479 20.6252 114.911 20.4957 114.344 20.3661C113.467 20.1588 112.616 19.8997 111.868 19.4074C109.805 18.086 110.063 15.3135 111.224 14.1475C111.868 13.4997 112.642 13.137 113.493 12.9815C114.06 12.852 114.576 12.8001 115.118 12.7224Z" fill="white"/>
<path d="M42.6282 13.6808C43.3244 13.6808 43.9691 13.6808 44.6396 13.6808C45.0522 13.6808 45.1554 13.7585 45.1554 14.199C45.1554 14.8727 45.1554 15.5204 45.1554 16.1941C45.1554 16.6087 45.0522 16.6864 44.6654 16.6864C43.9949 16.6864 43.3244 16.6864 42.6024 16.6864V16.9974C42.6024 19.5885 42.6024 22.2055 42.6024 24.7966C42.6024 25.2889 42.525 25.3666 42.035 25.3666C41.2098 25.3666 40.4104 25.3666 39.5852 25.3666C39.1984 25.3666 39.0952 25.2629 39.0952 24.8743C39.0952 20.9099 39.0952 16.9455 39.0952 12.9812C39.0952 11.867 39.3789 10.8046 40.1267 9.94959C40.823 9.12044 41.7772 8.70586 42.8087 8.62813C43.5308 8.57631 44.2528 8.62813 44.9491 8.65404C45.2585 8.65404 45.3617 8.80948 45.3617 9.12041C45.3617 9.84592 45.3617 10.5715 45.3617 11.271C45.3617 11.582 45.2843 11.6338 44.9749 11.6338C44.6396 11.6079 44.3044 11.582 43.9949 11.6079C43.1697 11.6597 42.7571 12.0225 42.6282 12.8516C42.6024 13.1366 42.6282 13.3957 42.6282 13.6808Z" fill="white"/>
<path d="M80.2261 18.9669C80.2519 18.2673 80.2261 17.4381 80.3808 16.6349C80.716 14.6398 81.9539 13.4479 83.888 12.9815C85.7963 12.5151 87.6014 12.7742 89.3034 13.7588C89.716 13.992 89.7418 14.1734 89.484 14.562C89.1229 15.1062 88.7619 15.6503 88.4009 16.1944C88.1946 16.5313 88.0398 16.5572 87.7046 16.3758C87.0857 16.039 86.4152 15.8576 85.7189 15.8835C84.5327 15.9094 83.8622 16.5831 83.8364 17.7491C83.8106 18.63 83.8106 19.4851 83.8364 20.3661C83.8622 21.5839 84.5069 22.2317 85.7447 22.2576C86.5183 22.2835 87.2404 22.0762 87.8851 21.6875C88.3235 21.4284 88.4267 21.4543 88.7103 21.8689C89.0714 22.413 89.4324 22.9571 89.7934 23.5013C90.0255 23.8381 89.9997 23.9677 89.6645 24.2009C88.2461 25.1596 86.6989 25.4964 84.9969 25.3669C84.1974 25.315 83.398 25.1337 82.6759 24.7709C81.3092 24.0454 80.5097 22.8794 80.3292 21.3766C80.2519 20.5993 80.2777 19.8219 80.2261 18.9669Z" fill="white"/>
<path d="M46.8052 19.7445C46.8052 18.0344 46.8052 16.3502 46.8052 14.6401C46.8052 14.2773 46.9341 14.07 47.2694 13.9404C49.0487 13.1372 50.9313 12.904 52.8654 13.189C53.0974 13.2149 53.3295 13.2668 53.5616 13.2927C53.8711 13.3445 53.9742 13.474 53.9742 13.785C53.9742 14.4587 53.9742 15.1324 53.9742 15.8061C53.9742 16.1688 53.8453 16.2465 53.4843 16.2465C52.788 16.2206 52.0659 16.1947 51.3696 16.2206C51.1118 16.2206 50.8539 16.3242 50.596 16.3761C50.4155 16.402 50.3639 16.5056 50.3639 16.687C50.3639 18.5526 50.3639 20.4182 50.3639 22.3097C50.3639 23.1907 50.3639 24.0457 50.3639 24.9267C50.3639 25.3154 50.2608 25.419 49.8739 25.419C49.0229 25.419 48.1977 25.419 47.3467 25.419C46.9341 25.419 46.831 25.3154 46.831 24.9008C46.8052 23.1388 46.8052 21.4287 46.8052 19.7445Z" fill="white"/>
<path d="M108.025 19.3812C108.025 21.195 108.025 23.0088 108.025 24.8225C108.025 25.2889 107.947 25.3667 107.483 25.3667C106.658 25.3667 105.833 25.3667 105.008 25.3667C104.621 25.3667 104.518 25.263 104.518 24.8744C104.518 21.195 104.518 17.5156 104.518 13.8363C104.518 13.4735 104.621 13.3699 105.008 13.3699C105.859 13.3699 106.735 13.3699 107.586 13.3699C107.947 13.3699 108.05 13.4735 108.05 13.8622C108.025 15.7019 108.025 17.5415 108.025 19.3812Z" fill="white"/>
<path d="M106.272 10.8567C104.905 10.8567 103.874 9.82028 103.874 8.47292C103.874 7.09964 104.88 6.11502 106.272 6.08911C107.664 6.08911 108.644 7.07373 108.644 8.47292C108.67 9.87211 107.664 10.8567 106.272 10.8567Z" fill="white"/>
<path d="M34.7623 19.6147H30.8691C30.7144 19.6147 30.5854 19.4851 30.5854 19.3296V16.8163C30.5854 16.6608 30.7144 16.5312 30.8691 16.5312H34.7623C34.917 16.5312 35.0459 16.6608 35.0459 16.8163V19.3296C35.0459 19.511 34.917 19.6147 34.7623 19.6147Z" fill="white"/>
<path fill-rule="evenodd" clip-rule="evenodd" d="M137.477 25.4701H142.892C143.434 25.4701 143.872 25.0555 143.846 24.5114V13.7065C143.846 13.1883 143.434 12.7478 142.892 12.7478H137.477C136.961 12.7478 136.522 13.1624 136.522 13.7065V24.5114C136.522 25.0296 136.935 25.4701 137.477 25.4701Z" fill="white"/>
</svg>
