<svg width="36" height="36" viewBox="0 0 36 36" fill="none" xmlns="http://www.w3.org/2000/svg">
<path d="M35.3837 6.43899C35.056 3.36891 32.6313 0.943711 29.5609 0.616323C21.8611 -0.205441 14.1389 -0.205441 6.43936 0.616323C3.36896 0.943986 0.944 3.36891 0.616333 6.43899C-0.205444 14.1384 -0.205444 21.8608 0.616333 29.5602C0.944 32.6305 3.36896 35.0555 6.43909 35.3831C14.1386 36.2049 21.8611 36.2049 29.5609 35.3831C32.6313 35.0555 35.056 32.6305 35.3837 29.5602C36.2054 21.8608 36.2054 14.1386 35.3837 6.43899Z" fill="url(#paint0_radial_40_2550)"/>
<path d="M33.4261 7.74159C33.1355 5.0173 30.9838 2.86539 28.2592 2.57453C21.4268 1.8456 14.5741 1.8456 7.74169 2.57453C5.01735 2.86539 2.8654 5.0173 2.57454 7.74159C1.8456 14.5739 1.8456 21.4265 2.57454 28.2585C2.8654 30.9831 5.01735 33.135 7.74169 33.4256C14.5741 34.1548 21.4268 34.1548 28.2589 33.4256C30.9835 33.135 33.1355 30.9831 33.4261 28.2585C34.1553 21.4265 34.1553 14.5739 33.4261 7.74159Z" fill="url(#paint1_linear_40_2550)"/>
<path d="M0.539062 28.8121C0.563782 29.061 0.589325 29.3098 0.615967 29.5586C0.943634 32.6287 3.36859 35.0536 6.439 35.3813C14.1385 36.2031 21.8611 36.2031 29.5606 35.3813C32.631 35.0536 35.0556 32.6287 35.3833 29.5586C35.41 29.3098 35.4355 29.061 35.4605 28.8121H0.539062Z" fill="url(#paint2_linear_40_2550)"/>
<path d="M35.3842 29.5608C35.8258 25.4237 36.0296 21.28 35.9967 17.1368L27.7679 8.90821C26.7399 7.73462 25.2383 7.00211 23.4739 6.93867C19.8454 6.80793 16.2054 6.81453 12.5763 6.93922C9.56219 7.04304 7.45447 9.06889 6.91394 12.0464C6.81863 12.5721 6.76151 13.1047 6.68652 13.6342V22.3632C6.728 22.6461 6.78897 22.9276 6.80792 23.2122C6.92877 25.0233 7.6731 26.5745 8.86484 27.624L17.2386 35.9973C21.3481 36.0262 25.4578 35.8218 29.5614 35.3838C32.6318 35.0561 35.0565 32.6312 35.3842 29.5608Z" fill="url(#paint3_linear_40_2550)"/>
<path d="M35.3839 29.5597C35.0565 32.6295 32.631 35.055 29.5611 35.3824C25.458 35.8202 21.3475 36.0248 17.2386 35.996L8.87744 27.635C9.84671 28.4834 11.1101 29 12.5763 29.0552C16.2045 29.1914 19.8454 29.1879 23.4736 29.0571C26.7552 28.9385 29.1299 26.5097 29.2324 23.2281C29.3417 19.7439 29.3417 16.2506 29.2324 12.7663C29.1857 11.2524 28.6542 9.92033 27.7731 8.91235L35.9966 17.1358C36.0291 21.2784 35.8253 25.4226 35.3839 29.5597Z" fill="url(#paint4_linear_40_2550)"/>
<path d="M22.2479 14.1039C21.1938 12.9561 19.6812 12.236 18.0001 12.236C14.8157 12.236 12.2339 14.8177 12.2339 18.002C12.2339 19.6832 12.954 21.1957 14.1018 22.2498L27.4428 35.5906C28.149 35.5291 28.8551 35.4607 29.5607 35.3854C32.6311 35.0578 35.0561 32.6329 35.3837 29.5625C35.459 28.8569 35.5274 28.1508 35.5889 27.4446L22.2479 14.1039Z" fill="url(#paint5_linear_40_2550)"/>
<path d="M35.9302 21.8767L25.1933 11.1402C24.9428 10.8114 24.5481 10.598 24.1029 10.598C23.3454 10.598 22.731 11.2121 22.731 11.9699C22.731 12.4151 22.9444 12.8098 23.2731 13.0603L35.7382 25.5255C35.8228 24.3096 35.8868 23.0931 35.9302 21.8767Z" fill="url(#paint6_linear_40_2550)"/>
<path d="M6.68652 13.6342C6.76151 13.1047 6.81863 12.5721 6.91394 12.0464C7.45419 9.06889 9.5622 7.04304 12.5763 6.93922C16.2054 6.81453 19.8454 6.80793 23.4739 6.93867C26.7544 7.05677 29.1302 9.48581 29.2327 12.7674C29.3417 16.2519 29.3417 19.745 29.2327 23.2295C29.1302 26.5111 26.7553 28.9398 23.4742 29.0582C19.8457 29.1892 16.2048 29.1925 12.5766 29.0563C9.2955 28.933 7.02737 26.4984 6.80792 23.2119C6.78897 22.9276 6.728 22.6459 6.68652 22.363C6.68652 19.4533 6.68652 16.5436 6.68652 13.6342ZM18.0035 27.1134C19.6641 27.1134 21.3264 27.1631 22.9847 27.1018C25.5849 27.0054 27.1843 25.4536 27.245 22.856C27.3202 19.6192 27.3202 16.378 27.245 13.1409C27.1843 10.5438 25.5838 8.95573 22.9847 8.90052C19.6858 8.83076 16.3833 8.83131 13.0844 8.90052C10.5051 8.95463 8.90109 10.5105 8.83105 13.0791C8.74207 16.3568 8.74207 19.6403 8.83105 22.918C8.90109 25.4863 10.5051 27.0063 13.0847 27.1018C14.7222 27.1628 16.3638 27.1134 18.0035 27.1134Z" fill="url(#paint7_linear_40_2550)"/>
<path d="M6.68604 13.6342C6.76102 13.1047 6.81815 12.5721 6.91345 12.0464C7.4537 9.06889 9.56171 7.04304 12.5758 6.93922C16.2049 6.81453 19.8449 6.80793 23.4734 6.93867C26.7539 7.05677 29.1297 9.48581 29.2322 12.7674C29.3412 16.2519 29.3412 19.745 29.2322 23.2295C29.1297 26.5111 26.7548 28.9398 23.4737 29.0582C19.8452 29.1892 16.2043 29.1925 12.5761 29.0563C9.29501 28.933 7.02689 26.4984 6.80743 23.2119C6.78848 22.9277 6.72751 22.6459 6.68604 22.363C6.68604 19.4533 6.68604 16.5436 6.68604 13.6342ZM18.0031 27.1134C19.6636 27.1134 21.3259 27.1631 22.9843 27.1018C25.5844 27.0054 27.1838 25.4536 27.2445 22.856C27.3197 19.6192 27.3197 16.378 27.2445 13.1409C27.1838 10.5438 25.5833 8.95573 22.9843 8.90052C19.6853 8.83076 16.3828 8.83131 13.0839 8.90052C10.5046 8.95463 8.9006 10.5105 8.83057 13.0791C8.74158 16.3568 8.74158 19.6403 8.83057 22.918C8.9006 25.4863 10.5046 27.0063 13.0842 27.1018C14.7217 27.1628 16.3633 27.1134 18.0031 27.1134Z" fill="white"/>
<path d="M17.9996 12.2355C14.8152 12.2355 12.2334 14.8169 12.2334 18.0013C12.2334 21.1859 14.8152 23.7674 17.9996 23.7674C21.1842 23.7674 23.7657 21.1859 23.7657 18.0013C23.7657 14.8169 21.1842 12.2355 17.9996 12.2355ZM17.9996 21.7822C15.9113 21.7822 14.2186 20.0895 14.2186 18.0013C14.2186 15.9131 15.9113 14.2204 17.9996 14.2204C20.0878 14.2204 21.7805 15.9131 21.7805 18.0013C21.7805 20.0895 20.0878 21.7822 17.9996 21.7822Z" fill="white"/>
<path d="M25.4745 11.9699C25.4745 12.7274 24.8604 13.3415 24.1029 13.3415C23.3454 13.3415 22.731 12.7274 22.731 11.9699C22.731 11.2121 23.3454 10.598 24.1029 10.598C24.8604 10.598 25.4745 11.2121 25.4745 11.9699Z" fill="white"/>
<defs>
<radialGradient id="paint0_radial_40_2550" cx="0" cy="0" r="1" gradientUnits="userSpaceOnUse" gradientTransform="translate(7.3798 31.4607) scale(39.7017 39.701)">
<stop stop-color="#FAE100"/>
<stop offset="0.0544" stop-color="#FADC04"/>
<stop offset="0.1167" stop-color="#FBCE0E"/>
<stop offset="0.1829" stop-color="#FCB720"/>
<stop offset="0.2514" stop-color="#FE9838"/>
<stop offset="0.3054" stop-color="#FF7950"/>
<stop offset="0.4922" stop-color="#FF1C74"/>
<stop offset="1" stop-color="#6C1CD1"/>
</radialGradient>
<linearGradient id="paint1_linear_40_2550" x1="13.8079" y1="15.6419" x2="-47.1799" y2="-18.6643" gradientUnits="userSpaceOnUse">
<stop stop-color="#A1B5D8" stop-opacity="0"/>
<stop offset="0.3094" stop-color="#90A2BD" stop-opacity="0.309804"/>
<stop offset="0.7554" stop-color="#7C8B9C" stop-opacity="0.756863"/>
<stop offset="1" stop-color="#748290"/>
</linearGradient>
<linearGradient id="paint2_linear_40_2550" x1="17.9997" y1="31.7766" x2="17.9997" y2="37.388" gradientUnits="userSpaceOnUse">
<stop stop-color="#FAE100" stop-opacity="0"/>
<stop offset="0.3068" stop-color="#FCA800" stop-opacity="0.305882"/>
<stop offset="0.6275" stop-color="#FE7300" stop-opacity="0.627451"/>
<stop offset="0.8685" stop-color="#FF5200" stop-opacity="0.866667"/>
<stop offset="1" stop-color="#FF4500"/>
</linearGradient>
<linearGradient id="paint3_linear_40_2550" x1="15.9525" y1="15.9014" x2="7.04321" y2="6.99199" gradientUnits="userSpaceOnUse">
<stop stop-color="#833AB4" stop-opacity="0"/>
<stop offset="1" stop-color="#833AB4"/>
</linearGradient>
<linearGradient id="paint4_linear_40_2550" x1="24.6728" y1="32.9252" x2="20.2261" y2="11.9619" gradientUnits="userSpaceOnUse">
<stop stop-color="#833AB4" stop-opacity="0"/>
<stop offset="1" stop-color="#833AB4"/>
</linearGradient>
<linearGradient id="paint5_linear_40_2550" x1="26.3648" y1="26.3666" x2="8.50401" y2="8.50557" gradientUnits="userSpaceOnUse">
<stop stop-color="#833AB4" stop-opacity="0"/>
<stop offset="1" stop-color="#833AB4"/>
</linearGradient>
<linearGradient id="paint6_linear_40_2550" x1="27.6895" y1="15.5564" x2="21.7833" y2="9.65014" gradientUnits="userSpaceOnUse">
<stop stop-color="#833AB4" stop-opacity="0"/>
<stop offset="1" stop-color="#833AB4"/>
</linearGradient>
<linearGradient id="paint7_linear_40_2550" x1="25.1484" y1="10.9024" x2="10.5858" y2="25.4652" gradientUnits="userSpaceOnUse">
<stop stop-color="#833AB4"/>
<stop offset="0.0922" stop-color="#9C3495"/>
<stop offset="0.2927" stop-color="#DC2546"/>
<stop offset="0.392" stop-color="#FD1D1D"/>
<stop offset="0.5589" stop-color="#FC6831"/>
<stop offset="0.6887" stop-color="#FC9B40"/>
<stop offset="0.7521" stop-color="#FCAF45"/>
<stop offset="0.7806" stop-color="#FDB750"/>
<stop offset="0.8656" stop-color="#FECB6A"/>
<stop offset="0.9415" stop-color="#FFD87A"/>
<stop offset="1" stop-color="#FFDC80"/>
</linearGradient>
</defs>
</svg>
