<svg width="36" height="36" viewBox="0 0 36 36" fill="none" xmlns="http://www.w3.org/2000/svg">
<path d="M29.5095 35.3853C21.8404 36.2049 14.106 36.2049 6.43692 35.3853C4.94765 35.2278 3.55729 34.5636 2.49762 33.5036C1.43795 32.4436 0.773006 31.0518 0.613647 29.5602C-0.204549 21.8779 -0.204549 14.1303 0.613647 6.44798C0.770916 4.95615 1.43391 3.5634 2.49209 2.50191C3.55027 1.44042 4.93971 0.774334 6.42875 0.614701C14.0978 -0.2049 21.8322 -0.2049 29.5013 0.614701C30.9906 0.77224 32.381 1.43637 33.4406 2.49637C34.5003 3.55637 35.1652 4.94819 35.3246 6.4398C36.1428 14.1221 36.1428 21.8697 35.3246 29.552C35.1673 31.0438 34.5043 32.4366 33.4462 33.4981C32.388 34.5596 30.9985 35.2257 29.5095 35.3853Z" fill="#1A9107"/>
<path d="M33.638 7.25255C33.3394 4.44778 31.128 2.2323 28.3277 1.93284C21.3057 1.18238 14.2627 1.18238 7.24063 1.93284C4.44067 2.2323 2.22899 4.44778 1.93005 7.25255C1.18087 14.2867 1.18087 21.3417 1.93005 28.3756C2.22899 31.1806 4.44067 33.3961 7.24063 33.6953C14.2627 34.446 21.3057 34.446 28.3274 33.6953C31.1277 33.3961 33.3394 31.1806 33.638 28.3756C34.3875 21.3417 34.3875 14.2867 33.638 7.25255Z" fill="#178705"/>
<path d="M36.0002 19.4257C35.9553 22.7923 35.7511 26.1569 35.3877 29.5194C35.229 31.0099 34.5654 32.401 33.5073 33.4609C32.4492 34.5208 31.0605 35.1856 29.5726 35.3445C26.2009 35.7045 22.8264 35.909 19.4492 35.9581L7.52393 29.4634C12.3119 13.7044 26.6749 10.9635 26.6749 10.9635L36.0002 19.4257Z" fill="#136F05"/>
<path d="M29.3239 18.0982C29.285 15.1317 28.084 12.3285 25.9421 10.205C23.7606 8.04227 20.8811 6.8512 17.8339 6.8512C14.8924 6.8512 12.1407 7.97333 10.0855 10.0108C8.26174 11.8189 7.14284 14.2304 6.9347 16.8011C6.73731 19.2401 7.3636 21.7083 8.70093 23.7836L6.87474 28.6775C6.79811 28.8829 6.85193 29.1138 7.01178 29.265C7.11681 29.3645 7.25441 29.4169 7.39416 29.4169C7.46703 29.4169 7.54056 29.396 7.61027 29.3666L12.3664 27.36C14.1821 28.4804 16.2582 29.0578 18.3901 29.0578C21.3311 29.0578 24.083 27.9491 26.1379 25.9118C28.2313 23.8364 29.3628 21.07 29.3239 18.0982Z" fill="white"/>
<path d="M24.2325 19.7444C24.0963 19.6674 23.9419 19.5801 23.7558 19.4677C23.652 19.4047 23.5214 19.3186 23.3831 19.2274C22.673 18.7593 22.135 18.428 21.677 18.428C21.5697 18.428 21.4682 18.4462 21.3757 18.482C20.9745 18.6372 20.645 19.0519 20.3263 19.4528C20.2095 19.5997 20.0424 19.81 19.941 19.904C19.5386 19.8305 18.6901 19.3025 17.7744 18.3828C16.8576 17.462 16.3318 16.6087 16.2596 16.2056C16.3531 16.1033 16.5641 15.9342 16.7112 15.8161C17.1089 15.4973 17.5201 15.1675 17.6755 14.7658C17.8737 14.2495 17.5104 13.6322 16.9335 12.7494C16.8427 12.6104 16.7569 12.4792 16.6947 12.3757C16.5823 12.1881 16.4955 12.0329 16.4188 11.8961C16.1042 11.3346 15.8964 10.9635 15.1154 10.9635C14.6086 10.9635 13.8919 11.4446 13.4065 11.9217C12.7011 12.6152 12.3125 13.4158 12.3125 14.1777C12.3138 16.247 13.4637 18.6187 15.4672 20.6871C15.4706 20.6905 15.474 20.6914 15.4776 20.6949C17.5369 22.7072 19.8995 23.8582 21.9597 23.8582C22.7172 23.8582 23.5154 23.4724 24.2058 22.7642C24.6812 22.2767 25.1608 21.5621 25.1608 21.0534C25.1609 20.2691 24.7916 20.0604 24.2325 19.7444Z" fill="#177807"/>
</svg>
