<svg width="36" height="36" viewBox="0 0 36 36" fill="none" xmlns="http://www.w3.org/2000/svg">
<path d="M29.5602 35.3853C21.8779 36.2049 14.1303 36.2049 6.44798 35.3853C4.95615 35.2278 3.5634 34.5636 2.50191 33.5036C1.44042 32.4436 0.774334 31.0518 0.614701 29.5602C-0.2049 21.8779 -0.2049 14.1303 0.614701 6.44798C0.77224 4.95615 1.43637 3.5634 2.49637 2.50191C3.55637 1.44042 4.94819 0.774334 6.4398 0.614701C14.1221 -0.2049 21.8697 -0.2049 29.552 0.614701C31.0438 0.77224 32.4366 1.43637 33.4981 2.49637C34.5596 3.55637 35.2257 4.94819 35.3853 6.4398C36.2049 14.1221 36.2049 21.8697 35.3853 29.552C35.2278 31.0438 34.5636 32.4366 33.5036 33.4981C32.4436 34.5596 31.0518 35.2257 29.5602 35.3853Z" fill="#E60000"/>
<path d="M33.4251 7.74133C33.1346 5.01717 30.983 2.86535 28.2586 2.57451C21.4266 1.84561 14.5743 1.84561 7.74231 2.57451C5.01814 2.86535 2.86633 5.01717 2.57548 7.74133C1.84658 14.5733 1.84658 21.4256 2.57548 28.2573C2.86633 30.9818 5.01814 33.1336 7.74231 33.4241C14.5743 34.1533 21.4266 34.1533 28.2583 33.4241C30.9827 33.1336 33.1346 30.9818 33.4251 28.2573C34.1543 21.4256 34.1543 14.5733 33.4251 7.74133Z" fill="url(#paint0_linear_40_2545)"/>
<path d="M35.9992 19.467C35.9542 22.8336 35.7497 26.1981 35.3856 29.5607C35.2267 31.0512 34.5619 32.4422 33.502 33.5021C32.4421 34.562 31.051 35.2268 29.5605 35.3858C26.183 35.7457 22.8028 35.9503 19.4198 35.9994L8.18274 24.75C7.35029 9.52871 27.5622 11.0463 27.5622 11.0463L35.9992 19.467Z" fill="#B50000"/>
<path d="M28.724 12.5889C28.274 11.2042 26.785 10.3656 25.4146 10.1733C20.4856 9.64974 15.515 9.64974 10.586 10.1733C9.21561 10.3656 7.72252 11.196 7.27664 12.5889C6.5751 16.1634 6.5751 19.8403 7.27664 23.4148C7.72661 24.7975 9.21561 25.6381 10.586 25.8303C15.515 26.354 20.4856 26.354 25.4146 25.8303C26.785 25.6381 28.2781 24.8077 28.724 23.4148C29.4255 19.8403 29.4255 16.1634 28.724 12.5889ZM15.3086 22.3124V13.6893L22.3282 18.0008C19.9618 19.4551 17.6649 20.8643 15.3086 22.3124Z" fill="white"/>
<defs>
<linearGradient id="paint0_linear_40_2545" x1="25.6136" y1="22.0834" x2="-26.6865" y2="-5.97227" gradientUnits="userSpaceOnUse">
<stop stop-color="#9E0000" stop-opacity="0"/>
<stop offset="1" stop-color="#E60000"/>
</linearGradient>
</defs>
</svg>
